<?xml version="1.0" encoding="UTF-8"?><svg id="Capa_1" xmlns="http://www.w3.org/2000/svg" viewBox="0 0 1000 1000"><circle cx="500" cy="500" r="489.69" stroke-width="0"/><path d="m539.73,793.38h-149.02v-23.2c1.38,0,2.68.06,3.97-.01,8.47-.49,17.01-.44,25.38-1.65,10.31-1.49,16.15-7.97,17.63-18.38.75-5.26,1.2-10.61,1.22-15.92.1-34.31.05-68.62.04-102.92,0-.91,0-1.82,0-2.98h-153.53v-27.71c2.55,0,5.01.13,7.45-.02,8.08-.52,16.19-.85,24.21-1.84,6-.74,10.66-4.2,14.11-9.25,2.24-3.28,2.85-7.02,3.09-10.78.69-10.79,1.6-21.59,1.61-32.39.13-93.03.09-186.07.02-279.1,0-5.54-.47-11.12-1.15-16.62-1.25-10.08-7.33-16.57-17.39-17.94-7.47-1.02-15.07-1.16-22.62-1.57-3.06-.17-6.14-.03-9.5-.03v-24.43c.92,0,1.73,0,2.53,0,56.41,0,112.81-.1,169.22.09,22.79.08,45.58.95,68.15,4.52,32.45,5.13,59.56,19.72,80.01,45.8,10.25,13.07,15.93,28.15,18.31,44.47,2.77,19.05,1.9,37.89-3.96,56.36-5.11,16.1-14.43,29.6-25.7,41.91-2.75,3-5.56,5.96-8.38,8.96,3.82.28,7.93.56,12.03.89,12.32,1.02,24.62,2.29,36.58,5.6,23.8,6.59,43.94,19.01,59.74,38.16,11.07,13.42,17.21,28.96,19.54,46.08,2.37,17.44,2.25,34.93-3.77,51.53-13.61,37.58-39.32,62.54-78.82,71.88-20.56,4.87-41.57,5.88-62.61,6.02-24.57.16-49.14.06-73.71.07-.84,0-1.68,0-2.9,0,0,.87,0,1.6,0,2.33.03,34.93.01,69.85.15,104.78.02,5,.38,10.06,1.23,14.98,1.9,10.97,8.35,17.69,19.7,18.33,8.17.46,16.36.52,24.54.75.83.02,1.66,0,2.6,0v23.2Zm-148.57-385.61c1.17,0,2.08,0,2.99,0,18.85,0,37.71-.04,56.56.01,14.92.04,29.82-.32,44.63-2.32,9.28-1.25,18.46-2.98,26.92-7.26,15.59-7.88,26.25-20.48,33.21-36.13,10.27-23.11,11.24-47.11,3.62-71.04-8.15-25.57-25.88-41.79-51.93-48.4-12.48-3.17-25.39-3.65-38.2-3.86-25.26-.4-50.53-.38-75.79-.52-.66,0-1.31.12-2.01.19v169.32Zm100.44,191.88h3.02c17.46,0,34.92.15,52.37-.05,11.73-.14,23.47-.55,35.18-1.27,10.03-.62,19.99-2.1,29.46-5.68,14.34-5.43,24.74-15.53,32.41-28.51,13.08-22.14,15.21-46.04,9.22-70.5-6.72-27.42-24.28-45.11-51.88-51.57-10.21-2.39-20.95-3.14-31.48-3.39-25.63-.62-51.28-.5-76.92-.67-.44,0-.87.12-1.37.2v161.45Zm-52.65.93v-3.04c0-43.96.02-87.91-.04-131.87,0-4.62-.34-9.26-.79-13.87-.4-4.08-1.26-8.07-3.73-11.54-.9-1.26-1.86-1.76-3.44-1.76-12.44.07-24.88.08-37.31,0-1.97-.01-2.64.42-2.63,2.54.07,34.45-.09,68.91.13,103.36.08,12.19.84,24.39,1.7,36.55.66,9.23,7.34,16.5,16.15,18.22,9.77,1.9,19.67,1.4,29.96,1.41Z" fill="#fff" stroke-width="0"/></svg>